<svg xmlns="http://www.w3.org/2000/svg" viewBox="0 0 470 445"><defs><style>.cls-1{fill:#ffa324;}</style></defs><title>Asset 1</title><g id="Layer_2" data-name="Layer 2"><g id="Layer_1-2" data-name="Layer 1"><path class="cls-1" d="M432.5,0H37.5A37.54,37.54,0,0,0,0,37.5v300A37.54,37.54,0,0,0,37.5,375h145v55H130a7.5,7.5,0,0,0,0,15H340a7.5,7.5,0,0,0,0-15H287.5V375h145A37.54,37.54,0,0,0,470,337.5V37.5A37.54,37.54,0,0,0,432.5,0Zm-160,430h-75V375h75ZM455,337.5A22.52,22.52,0,0,1,432.5,360H37.5A22.52,22.52,0,0,1,15,337.5V315H455Zm0-37.5H15V37.5A22.52,22.52,0,0,1,37.5,15h395A22.52,22.52,0,0,1,455,37.5Z"/><path class="cls-1" d="M432.5,30H37.5A7.5,7.5,0,0,0,30,37.5v240a7.5,7.5,0,0,0,7.5,7.5h325a7.5,7.5,0,0,0,0-15H45V45H425V270H392.5a7.5,7.5,0,0,0,0,15h40a7.5,7.5,0,0,0,7.5-7.5V37.5A7.5,7.5,0,0,0,432.5,30Z"/></g></g></svg>