<svg xmlns="http://www.w3.org/2000/svg" viewBox="0 0 222.5 156.2"><defs><style>.cls-1{fill:#ffa324;}</style></defs><title>tablet-icon</title><g id="Layer_2" data-name="Layer 2"><g id="Layer_1-2" data-name="Layer 1"><path class="cls-1" d="M217.3,156.2H5.1a4.91,4.91,0,0,1-3.6-1.5A4.91,4.91,0,0,1,0,151.1V5.1A4.91,4.91,0,0,1,1.5,1.5,4.91,4.91,0,0,1,5.1,0H217.4A4.91,4.91,0,0,1,221,1.5a4.91,4.91,0,0,1,1.5,3.6v146a4.91,4.91,0,0,1-1.5,3.6A5,5,0,0,1,217.3,156.2Zm-7.9-16.8V16.6H13.1V139.5H209.4ZM116,150.1a2.45,2.45,0,0,0,1.6-.6,2.25,2.25,0,0,0-1.6-3.8h-9.5a2.4,2.4,0,0,0-2.3,2.3,1.8,1.8,0,0,0,.7,1.5,2.27,2.27,0,0,0,1.6.6ZM111.3,10.7c.9,0,1.3-.5,1.3-1.5s-.4-1.3-1.3-1.3-1.3.4-1.3,1.3S110.4,10.7,111.3,10.7Z"/></g></g></svg>