<svg xmlns="http://www.w3.org/2000/svg" viewBox="0 0 76.25 13.6"><defs><style>.cls-1{fill:#707070;}</style></defs><title>webproject-shape</title><g id="Layer_2" data-name="Layer 2"><g id="Layer_1-2" data-name="Layer 1"><path class="cls-1" d="M10.09,3.13,8,10.69H7L5,4.35,3.17,10.69h-1L0,3.13H.88L2.69,9.52,4.55,3.13h1L7.47,9.52,9.22,3.13Z"/><path class="cls-1" d="M14.73,10.89a3.7,3.7,0,0,1-1.44-.27,3.11,3.11,0,0,1-1.11-.78,3.53,3.53,0,0,1-.72-1.26,5.42,5.42,0,0,1-.25-1.69,5,5,0,0,1,.25-1.65A3.52,3.52,0,0,1,12.15,4a3.17,3.17,0,0,1,1.06-.79,3.38,3.38,0,0,1,1.37-.27A3.53,3.53,0,0,1,16,3.2,3.07,3.07,0,0,1,17,4a3.48,3.48,0,0,1,.67,1.25A5.37,5.37,0,0,1,18,6.9v.18H12a4.65,4.65,0,0,0,.29,1.34,2.83,2.83,0,0,0,.58.94,2.26,2.26,0,0,0,.84.56,2.66,2.66,0,0,0,1,.19,3,3,0,0,0,.78-.1,2.75,2.75,0,0,0,.71-.27,2.14,2.14,0,0,0,.53-.46A1.17,1.17,0,0,0,17,8.65h.77a2.6,2.6,0,0,1-.38.95,2.52,2.52,0,0,1-.67.71,3.05,3.05,0,0,1-.91.43A3.81,3.81,0,0,1,14.73,10.89ZM17.16,6.3a3.21,3.21,0,0,0-.89-1.94,2.36,2.36,0,0,0-1.69-.65,2.6,2.6,0,0,0-.93.16,2,2,0,0,0-.76.48,2.45,2.45,0,0,0-.57.81A4.27,4.27,0,0,0,12,6.3Z"/><path class="cls-1" d="M20.83,4.34a3.47,3.47,0,0,1,.63-.68,3.42,3.42,0,0,1,.67-.43A2.48,2.48,0,0,1,22.77,3a2.58,2.58,0,0,1,.6-.07,2.68,2.68,0,0,1,1.25.28,2.57,2.57,0,0,1,.92.79,3.87,3.87,0,0,1,.56,1.23,6.23,6.23,0,0,1,.2,1.61,5.48,5.48,0,0,1-.24,1.67,4,4,0,0,1-.64,1.28,2.82,2.82,0,0,1-1,.81,2.58,2.58,0,0,1-1.19.29,3.75,3.75,0,0,1-1.21-.22,3.37,3.37,0,0,1-1.24-.77v.79h-.78V0h.78Zm0,4.55a5.24,5.24,0,0,0,1.1.89,2.47,2.47,0,0,0,1.26.33,2,2,0,0,0,1.69-.83,3.94,3.94,0,0,0,.64-2.44,3.85,3.85,0,0,0-.6-2.34,2,2,0,0,0-1.66-.79A2.16,2.16,0,0,0,22,4.13a4.78,4.78,0,0,0-1.14,1.18Z"/><path class="cls-1" d="M30.13,10.69H28.7V9.27h1.43Z"/><path class="cls-1" d="M33.8,4.25a4.33,4.33,0,0,1,.72-.71,3.27,3.27,0,0,1,.67-.41A2.13,2.13,0,0,1,35.81,3a3.77,3.77,0,0,1,.58,0,2.68,2.68,0,0,1,1.25.28,2.59,2.59,0,0,1,.91.8,3.68,3.68,0,0,1,.57,1.23,6.23,6.23,0,0,1,.2,1.61,5.81,5.81,0,0,1-.23,1.67,4.26,4.26,0,0,1-.64,1.28,2.92,2.92,0,0,1-1,.81,2.59,2.59,0,0,1-1.2.29l-.57,0a2.28,2.28,0,0,1-.6-.12,2.83,2.83,0,0,1-.65-.29,3.26,3.26,0,0,1-.68-.51v3.54H33V3.13h.78ZM33.8,9a3.22,3.22,0,0,0,2.42,1.12,2.11,2.11,0,0,0,1-.21,2,2,0,0,0,.73-.62,3.2,3.2,0,0,0,.47-1,5.47,5.47,0,0,0,.17-1.42,3.85,3.85,0,0,0-.6-2.34,1.93,1.93,0,0,0-1.66-.79A3.06,3.06,0,0,0,33.8,5.22Z"/><path class="cls-1" d="M44.83,3.73l-.23,0h-.28a1.65,1.65,0,0,0-.65.14,3,3,0,0,0-.59.35,4.18,4.18,0,0,0-.53.5,5.19,5.19,0,0,0-.42.57v5.42h-.78V3.13h.78v1a3.84,3.84,0,0,1,.66-.63,3.73,3.73,0,0,1,.63-.39A2.47,2.47,0,0,1,44,3a3.37,3.37,0,0,1,.52,0h.15l.15,0Z"/><path class="cls-1" d="M49.22,2.93a3.53,3.53,0,0,1,1.4.27A2.92,2.92,0,0,1,51.68,4a3.48,3.48,0,0,1,.67,1.25,5.37,5.37,0,0,1,.24,1.66,5.43,5.43,0,0,1-.24,1.69,3.62,3.62,0,0,1-.68,1.26,2.92,2.92,0,0,1-1.06.78,3.48,3.48,0,0,1-1.39.27,3.57,3.57,0,0,1-1.38-.26,2.84,2.84,0,0,1-1.06-.78,3.63,3.63,0,0,1-.69-1.26,5.49,5.49,0,0,1-.24-1.7,5.39,5.39,0,0,1,.24-1.67A3.5,3.5,0,0,1,46.77,4a3,3,0,0,1,1.06-.77A3.48,3.48,0,0,1,49.22,2.93Zm0,7.18a2.77,2.77,0,0,0,1.05-.2,2.2,2.2,0,0,0,.81-.61,2.9,2.9,0,0,0,.54-1,4.91,4.91,0,0,0,.19-1.41,4.87,4.87,0,0,0-.19-1.39,2.76,2.76,0,0,0-.54-1,2.07,2.07,0,0,0-.81-.6,2.88,2.88,0,0,0-2.11,0,2.1,2.1,0,0,0-.82.6,2.73,2.73,0,0,0-.52,1,4.54,4.54,0,0,0-.19,1.39,4.58,4.58,0,0,0,.19,1.41,2.87,2.87,0,0,0,.52,1,2.23,2.23,0,0,0,.82.61A2.78,2.78,0,0,0,49.22,10.11Z"/><path class="cls-1" d="M55.5,11a5.24,5.24,0,0,1-.13,1.31,2.07,2.07,0,0,1-.35.79,1.17,1.17,0,0,1-.55.38,2.26,2.26,0,0,1-.71.1,5.79,5.79,0,0,1-.61,0v-.83h.22A4,4,0,0,0,54,12.7a.69.69,0,0,0,.41-.25,1.13,1.13,0,0,0,.21-.54,5.91,5.91,0,0,0,.06-.94V3.11h.78Zm0-9.8h-.78V0h.78Z"/><path class="cls-1" d="M61.06,10.89a3.68,3.68,0,0,1-1.43-.27,3.11,3.11,0,0,1-1.11-.78,3.53,3.53,0,0,1-.72-1.26,5.14,5.14,0,0,1-.25-1.69,5.3,5.3,0,0,1,.24-1.65A3.69,3.69,0,0,1,58.49,4a3.17,3.17,0,0,1,1.06-.79,3.38,3.38,0,0,1,1.37-.27,3.45,3.45,0,0,1,1.39.27A3,3,0,0,1,63.38,4a3.48,3.48,0,0,1,.67,1.25,5.37,5.37,0,0,1,.24,1.66v.18h-6a4.66,4.66,0,0,0,.28,1.34,2.85,2.85,0,0,0,.59.94,2.3,2.3,0,0,0,.83.56,2.7,2.7,0,0,0,1,.19,3.06,3.06,0,0,0,.79-.1,2.55,2.55,0,0,0,.7-.27,2,2,0,0,0,.54-.46,1.25,1.25,0,0,0,.25-.63h.77a2.6,2.6,0,0,1-.38.95,2.67,2.67,0,0,1-.67.71,3.05,3.05,0,0,1-.91.43A3.83,3.83,0,0,1,61.06,10.89ZM63.5,6.3a3.21,3.21,0,0,0-.89-1.94,2.38,2.38,0,0,0-1.69-.65,2.6,2.6,0,0,0-.93.16,2.08,2.08,0,0,0-.77.48,2.59,2.59,0,0,0-.56.81,3.93,3.93,0,0,0-.33,1.14Z"/><path class="cls-1" d="M69.26,10.89a3.56,3.56,0,0,1-1.37-.26,3,3,0,0,1-1.07-.78,3.5,3.5,0,0,1-.69-1.25,5.49,5.49,0,0,1-.24-1.7,5.5,5.5,0,0,1,.24-1.68A3.66,3.66,0,0,1,66.81,4a3.06,3.06,0,0,1,1.07-.77,3.61,3.61,0,0,1,2.4-.12,2.57,2.57,0,0,1,.84.43,2.3,2.3,0,0,1,.61.7,2.68,2.68,0,0,1,.35,1h-.76a1.57,1.57,0,0,0-.22-.63,1.64,1.64,0,0,0-.45-.46A2.27,2.27,0,0,0,70,3.8a3,3,0,0,0-.76-.09,2.78,2.78,0,0,0-1.06.2,2.1,2.1,0,0,0-.82.6,2.71,2.71,0,0,0-.52,1,4.54,4.54,0,0,0-.19,1.39,4.58,4.58,0,0,0,.19,1.41,2.71,2.71,0,0,0,.52,1,2.32,2.32,0,0,0,.82.6,2.78,2.78,0,0,0,1.06.2A2.52,2.52,0,0,0,70,10a2.22,2.22,0,0,0,.63-.27,1.52,1.52,0,0,0,.46-.45,1.34,1.34,0,0,0,.24-.63h.76a2.74,2.74,0,0,1-.36,1,2.43,2.43,0,0,1-.61.7,2.78,2.78,0,0,1-.84.43A3.68,3.68,0,0,1,69.26,10.89Z"/><path class="cls-1" d="M76.25,10.76l-.33,0h-.33a2.09,2.09,0,0,1-.82-.14,1.09,1.09,0,0,1-.47-.43,1.7,1.7,0,0,1-.21-.7,9.61,9.61,0,0,1,0-1V3.91h-1V3.13h1v-2h.78v2h1.24v.78H74.82V8.6a3.52,3.52,0,0,0,.07.75,1,1,0,0,0,.21.43.63.63,0,0,0,.33.2,3.15,3.15,0,0,0,.46,0h.36Z"/></g></g></svg>